<svg width="16" height="12" viewBox="0 0 16 12" fill="none" xmlns="http://www.w3.org/2000/svg">
<path d="M0 3.36842H3.36842V0H0V3.36842ZM0 7.57895H3.36842V4.21053H0V7.57895ZM4.21053 7.57895H7.57895V4.21053H4.21053V7.57895ZM8.42105 7.57895H11.7895V4.21053H8.42105V7.57895ZM4.21053 3.36842H7.57895V0H4.21053V3.36842ZM8.42105 0V3.36842H11.7895V0H8.42105ZM12.6316 7.57895H16V4.21053H12.6316V7.57895ZM0 11.7895H3.36842V8.42105H0V11.7895ZM4.21053 11.7895H7.57895V8.42105H4.21053V11.7895ZM8.42105 11.7895H11.7895V8.42105H8.42105V11.7895ZM12.6316 11.7895H16V8.42105H12.6316V11.7895ZM12.6316 0V3.36842H16V0H12.6316Z" fill="black" fill-opacity="0.54"/>
</svg>
