<svg width="873" height="545" viewBox="0 0 873 545" fill="none" xmlns="http://www.w3.org/2000/svg">
<path d="M752.152 303.896L760.789 318.904L769.411 333.913L778.105 318.933L786.799 303.953L774.816 303.939L774.945 246.064L764.249 246.05L764.121 303.91L752.152 303.896Z" fill="#E0E0E0"/>
<path d="M782.894 264.16L788.028 273.107L793.175 282.07L798.366 273.136L803.542 264.203L796.407 264.188L796.478 229.684L790.101 229.669L790.03 264.174L782.894 264.16Z" fill="#E0E0E0"/>
<path d="M190.751 30.0165L182.128 15.0083L173.491 0L164.812 14.9797L156.118 29.9594L168.086 29.9736L167.972 87.8484L178.668 87.8627L178.782 30.0022L190.751 30.0165Z" fill="#E0E0E0"/>
<path d="M156.663 68.0804L151.444 59.004L146.225 49.9276L140.977 58.9897L135.715 68.0375L142.95 68.0518L142.893 103.028L149.356 103.043L149.428 68.0661L156.663 68.0804Z" fill="#E0E0E0"/>
<path d="M788.19 496.059C766.741 482.066 761.379 455.265 761.608 431.066C761.608 427.021 761.093 422.776 762.952 419.188C764.811 415.6 769.301 413.07 772.961 414.686C776.036 416.015 777.451 419.474 779.224 422.318C781.615 426.135 785.042 429.193 789.105 431.137C791.751 432.41 794.996 433.139 797.527 431.681C801.016 429.68 801.317 424.863 801.188 420.846L800.545 398.391C800.198 394.384 800.512 390.347 801.474 386.441C802.647 382.596 805.349 378.994 809.196 377.865C813.042 376.736 817.889 378.794 818.805 382.711C819 384.366 819.082 386.033 819.048 387.699C819.042 388.537 819.286 389.358 819.75 390.055C820.213 390.753 820.875 391.297 821.65 391.616C823.28 392.045 824.882 390.872 826.069 389.672C830.172 385.512 832.889 380.224 835.435 374.964C837.98 369.704 840.425 364.329 844.128 359.812C847.832 355.296 853.023 351.665 858.842 351.236C864.662 350.808 870.954 354.095 872.57 359.812C874.185 365.53 870.982 371.247 867.45 375.936C862.2 382.875 855.973 389.019 848.962 394.174C847.599 394.963 846.522 396.164 845.887 397.605C845.072 400.306 847.703 402.893 850.406 403.722C853.466 404.637 856.755 404.251 859.929 404.537C863.104 404.823 866.593 406.138 867.865 409.068C869.624 413.128 866.249 417.516 862.903 420.417C856.164 426.233 848.479 430.854 840.182 434.082C837.222 435.24 834.09 436.255 831.731 438.37C829.372 440.485 827.999 444.159 829.515 446.946C831.03 449.733 834.82 450.562 837.937 449.905C841.054 449.247 843.828 447.518 846.788 446.332C852.336 444.116 859.557 444.316 863.261 449.004C864.392 450.614 865.131 452.466 865.416 454.412C865.702 456.358 865.527 458.344 864.905 460.211C863.632 463.935 861.619 467.362 858.985 470.288C850.329 481.034 838.982 489.299 826.097 494.244C813.228 499.003 801.231 500.49 788.219 496.145" fill="#F0F0F0"/>
<path d="M866.474 354.338C866.355 354.476 866.226 354.605 866.088 354.724L864.901 355.81C863.857 356.768 862.313 358.169 860.383 360.098C854.91 365.344 849.843 370.996 845.225 377.007C842.28 380.81 839.234 385.098 836.045 389.757C832.857 394.417 829.511 399.434 826.165 404.837C822.644 410.423 819.432 416.196 816.541 422.132C815.04 425.248 813.681 428.493 812.38 431.809C811.079 435.125 809.678 438.47 808.305 441.815C803.068 454.578 798.566 467.63 794.821 480.908C791.785 491.732 789.788 502.822 788.858 514.026C788.249 521.583 788.316 529.179 789.058 536.724C789.33 539.397 789.602 541.469 789.83 542.856L790.059 544.457C790.072 544.638 790.072 544.819 790.059 545C790.059 545 789.387 542.141 788.758 536.753C787.937 529.195 787.807 521.578 788.372 513.997C789.238 502.748 791.191 491.609 794.206 480.736C797.949 467.472 802.451 454.434 807.69 441.686L811.78 431.68C813.124 428.379 814.454 425.105 815.955 421.989C818.86 415.996 822.096 410.17 825.65 404.537C829.01 399.134 832.385 394.131 835.588 389.471C838.791 384.812 841.865 380.538 844.839 376.75C849.497 370.747 854.622 365.122 860.168 359.927C862.141 358.083 863.7 356.711 864.772 355.782L866.002 354.738L866.474 354.338Z" fill="#E0E0E0"/>
<path d="M816.157 421.861C815.966 421.308 815.827 420.739 815.742 420.16C815.513 419.045 815.227 417.444 814.898 415.443C814.226 411.455 813.468 405.924 812.71 399.82C811.953 393.717 811.095 388.2 810.337 384.24C809.979 382.268 809.665 380.667 809.422 379.552C809.264 378.987 809.163 378.408 809.121 377.822C809.331 378.372 809.503 378.936 809.636 379.509C809.951 380.595 810.322 382.182 810.751 384.154C811.609 388.114 812.51 393.631 813.297 399.749C814.083 405.866 814.727 411.269 815.299 415.386C815.57 417.301 815.785 418.888 815.956 420.117C816.075 420.691 816.142 421.275 816.157 421.861Z" fill="#E0E0E0"/>
<path d="M868.246 410.969L867.717 411.069L866.158 411.241C864.828 411.369 862.884 411.569 860.439 411.898C855.648 412.513 849.071 413.599 841.85 415.114C834.629 416.629 828.194 418.302 823.561 419.66C821.244 420.317 819.371 420.889 818.084 421.289L816.654 421.746C816.311 421.847 816.125 421.889 816.125 421.861C816.274 421.759 816.438 421.682 816.611 421.632L818.041 421.075C819.314 420.603 821.159 419.96 823.461 419.245C828.079 417.816 834.528 416.058 841.749 414.514C848.971 412.97 855.577 411.984 860.338 411.469C862.741 411.198 864.7 411.069 866.058 410.998H867.617C868.06 410.94 868.246 410.941 868.246 410.969Z" fill="#E0E0E0"/>
<path d="M794.823 479.778C794.683 479.581 794.563 479.371 794.466 479.149L793.536 477.291C792.736 475.69 791.635 473.332 790.305 470.402C787.645 464.541 784.228 456.337 780.567 447.232C776.907 438.127 773.546 429.908 770.987 424.019L767.941 417.044C767.598 416.272 767.326 415.614 767.112 415.143C767.005 414.927 766.919 414.702 766.854 414.471C766.854 414.471 766.997 414.671 767.226 415.1L768.155 416.944C768.956 418.559 770.057 420.917 771.387 423.847C774.047 429.708 777.464 437.912 781.125 447.017C784.785 456.122 788.146 464.327 790.691 470.23L793.751 477.205C794.08 477.977 794.366 478.635 794.58 479.092C794.681 479.314 794.762 479.543 794.823 479.778Z" fill="#E0E0E0"/>
<path d="M863.76 456.008C863.541 456.126 863.311 456.221 863.074 456.294L861.072 456.995L853.679 459.525C847.43 461.683 838.851 464.756 829.371 468.101C819.89 471.445 811.282 474.547 805.062 476.591C801.93 477.62 799.342 478.421 797.612 478.95L795.567 479.536C795.33 479.614 795.086 479.672 794.838 479.707C795.055 479.586 795.285 479.49 795.524 479.421L797.541 478.721L804.933 476.177C811.168 474.033 819.762 470.959 829.242 467.529C838.722 464.099 847.33 461.097 853.551 459.053C856.696 458.024 859.27 457.223 861.015 456.694L863.059 456.108C863.287 456.04 863.523 456.007 863.76 456.008Z" fill="#E0E0E0"/>
<path d="M866.102 542.856C866.102 543.056 672.205 543.228 433.065 543.228C193.926 543.228 0 543.056 0 542.856C0 542.656 193.854 542.484 433.065 542.484C672.276 542.484 866.102 542.642 866.102 542.856Z" fill="#263238"/>
<path d="M89.0839 498.489C83.9046 496.055 78.0815 495.344 72.4683 496.459C69.4655 496.959 66.3196 497.888 64.2748 500.118C62.2301 502.348 61.8297 506.364 64.189 508.308C65.7043 509.334 67.5297 509.799 69.3511 509.623C73.7552 509.623 78.6169 508.794 82.1345 511.439C84.1364 512.94 85.4662 515.441 87.8542 516.184C89.052 516.454 90.3048 516.332 91.4276 515.835C92.5503 515.338 93.4833 514.493 94.0887 513.425C95.2221 511.219 95.4726 508.663 94.7893 506.279C94.4993 504.63 93.8339 503.07 92.8446 501.719C91.8553 500.368 90.5686 499.263 89.0839 498.489Z" fill="#5367FC"/>
<path d="M100.665 476.148C97.5769 480.565 91.5712 479.092 88.7829 476.405C85.9945 473.718 84.822 469.816 83.7496 466.085C81.3044 457.58 78.8306 448.661 80.6609 440.014C81.0836 437.368 82.2376 434.892 83.9926 432.867C84.8689 431.875 85.9914 431.133 87.2467 430.713C88.502 430.294 89.8458 430.214 91.1422 430.48C94.1594 431.266 96.0469 434.239 97.4053 437.055C101.417 445.382 103.518 454.499 103.554 463.741C103.554 468.029 103.053 472.546 100.694 476.091" fill="#5367FC"/>
<g opacity="0.2">
<path opacity="0.2" d="M100.668 476.148C97.5798 480.565 91.5741 479.092 88.7858 476.405C85.9975 473.718 84.8249 469.816 83.7525 466.085C81.3073 457.58 78.8336 448.661 80.6639 440.014C81.0866 437.368 82.2405 434.892 83.9956 432.867C84.8718 431.875 85.9943 431.133 87.2496 430.713C88.505 430.294 89.8487 430.214 91.1452 430.48C94.1623 431.266 96.0498 434.239 97.4082 437.055C101.42 445.382 103.521 454.499 103.557 463.741C103.557 468.029 103.056 472.546 100.697 476.091" fill="black"/>
</g>
<path d="M109.144 482.48C107.558 480.404 106.503 477.973 106.07 475.398C105.636 472.823 105.837 470.181 106.656 467.701C108.349 462.75 111.377 458.362 115.407 455.022C119.996 450.944 125.34 447.802 131.136 445.774C133.37 444.867 135.776 444.457 138.185 444.574C139.386 444.645 140.551 445.008 141.58 445.63C142.609 446.253 143.471 447.117 144.091 448.147C145.749 451.291 144.162 455.108 142.446 458.224C139.439 463.73 135.996 468.988 132.151 473.947C129.077 477.92 125.53 481.851 120.84 483.638C116.15 485.425 111.246 485.224 108.757 481.965" fill="#5367FC"/>
<path d="M100.868 542.684C100.709 542.028 100.618 541.358 100.596 540.683C100.453 539.254 100.282 537.396 100.067 535.209C99.8526 533.022 99.4665 530.178 98.8374 527.19C98.1325 523.966 97.1763 520.803 95.9775 517.728C94.7804 514.652 93.1479 511.764 91.1301 509.152C89.4944 507.027 87.4095 505.289 85.0243 504.063C83.3963 503.267 81.6551 502.727 79.8623 502.462C79.1915 502.438 78.5253 502.342 77.8748 502.176C78.5494 502.099 79.2306 502.099 79.9052 502.176C81.7646 502.324 83.5816 502.808 85.2674 503.606C87.7883 504.79 90.0005 506.541 91.7307 508.723C93.8206 511.377 95.507 514.324 96.7354 517.471C97.96 520.59 98.9168 523.808 99.5952 527.09C100.114 529.777 100.467 532.493 100.653 535.223C100.839 537.539 100.896 539.425 100.925 540.726C100.976 541.379 100.957 542.036 100.868 542.684Z" fill="#263238"/>
<path d="M100.494 538.482C100.46 538.173 100.46 537.862 100.494 537.553C100.494 536.853 100.494 535.966 100.494 534.894C100.494 532.579 100.494 529.248 100.38 525.118C100.165 516.87 99.4645 505.478 98.0918 492.971C96.719 480.464 94.8744 469.187 93.2014 461.097C92.8011 459.081 92.415 457.252 92.0289 455.651C91.6428 454.05 91.3711 452.678 91.0852 451.563C90.7992 450.448 90.6133 449.662 90.456 448.976C90.3677 448.678 90.3149 448.371 90.2987 448.061C90.4381 448.338 90.5437 448.631 90.6133 448.933L91.3854 451.477C91.7286 452.592 92.0861 453.95 92.4865 455.551C92.8869 457.152 93.3444 458.953 93.7734 460.982C96.0504 471.513 97.764 482.158 98.9068 492.871C100.337 505.421 100.909 516.842 100.952 525.103C100.952 529.248 100.952 532.593 100.809 534.894C100.809 535.981 100.694 536.853 100.651 537.553C100.639 537.868 100.586 538.18 100.494 538.482Z" fill="#263238"/>
<path d="M100.437 516.47C100.365 515.542 100.365 514.61 100.437 513.683C100.537 511.91 100.78 509.323 101.281 506.164C101.89 502.467 102.707 498.807 103.726 495.201C104.946 490.771 106.48 486.434 108.316 482.222C111.494 474.469 116.064 467.363 121.8 461.254C122.786 460.198 123.842 459.21 124.96 458.295C125.446 457.895 125.875 457.48 126.319 457.151L127.548 456.308C128.289 455.768 129.074 455.29 129.893 454.879C127.197 457.003 124.633 459.289 122.215 461.725C116.678 467.894 112.234 474.961 109.074 482.623C107.261 486.806 105.723 491.103 104.47 495.487C103.268 499.518 102.468 503.22 101.853 506.35C101.238 509.48 100.952 512.067 100.752 513.797C100.719 514.695 100.614 515.589 100.437 516.47Z" fill="#263238"/>
<path d="M653.074 51.5282H213.56V393.388H653.074V51.5282Z" fill="white"/>
<path d="M653.077 393.388C653.077 390.829 652.948 257.884 652.763 51.528L653.077 51.8282H213.606L213.978 51.4565C213.978 174.682 213.978 291.231 213.978 393.316L213.649 392.973L653.163 393.316L213.649 393.645H213.32V393.316C213.32 291.231 213.32 174.624 213.32 51.4565V51.0849H213.735H653.206H653.506V51.3993C653.263 257.884 653.077 390.829 653.077 393.388Z" fill="#263238"/>
<path d="M334.388 364.672C334.174 364.672 334.017 327.509 334.017 281.683C334.017 235.858 334.174 198.681 334.388 198.681C334.603 198.681 334.76 235.844 334.76 281.683C334.76 327.523 334.617 364.672 334.388 364.672Z" fill="#263238"/>
<path d="M525.155 364.672C524.94 364.672 524.783 327.509 524.783 281.683C524.783 235.858 524.94 198.681 525.155 198.681C525.369 198.681 525.526 235.844 525.526 281.683C525.526 327.523 525.355 364.672 525.155 364.672Z" fill="#263238"/>
<path d="M399.521 364.672C399.321 364.672 399.149 317.174 399.149 258.585C399.149 199.996 399.321 152.47 399.521 152.47C399.721 152.47 399.893 199.967 399.893 258.585C399.893 317.203 399.736 364.672 399.521 364.672Z" fill="#263238"/>
<path d="M267.54 364.672C267.325 364.672 267.168 317.174 267.168 258.585C267.168 199.996 267.325 152.47 267.54 152.47C267.754 152.47 267.911 199.967 267.911 258.585C267.911 317.203 267.74 364.672 267.54 364.672Z" fill="#263238"/>
<path d="M600.009 364.672C599.809 364.672 599.637 317.174 599.637 258.585C599.637 199.996 599.809 152.47 600.009 152.47C600.209 152.47 600.381 199.967 600.381 258.585C600.381 317.203 600.223 364.672 600.009 364.672Z" fill="#263238"/>
<path d="M456.631 364.672C456.417 364.672 456.259 309.828 456.259 242.176C456.259 174.525 456.417 119.652 456.631 119.652C456.845 119.652 457.003 174.496 457.003 242.176C457.003 309.856 456.831 364.672 456.631 364.672Z" fill="#263238"/>
<path d="M335.977 198.681C335.977 198.989 335.886 199.29 335.714 199.546C335.543 199.802 335.3 200.002 335.015 200.12C334.73 200.238 334.417 200.269 334.114 200.209C333.812 200.149 333.534 200 333.316 199.782C333.098 199.564 332.95 199.287 332.89 198.984C332.83 198.682 332.861 198.369 332.979 198.084C333.097 197.8 333.296 197.556 333.553 197.385C333.809 197.214 334.11 197.123 334.419 197.123C334.832 197.123 335.228 197.287 335.521 197.579C335.813 197.871 335.977 198.267 335.977 198.681Z" fill="#263238"/>
<path d="M399.522 154.027C400.383 154.027 401.081 153.33 401.081 152.469C401.081 151.609 400.383 150.911 399.522 150.911C398.661 150.911 397.964 151.609 397.964 152.469C397.964 153.33 398.661 154.027 399.522 154.027Z" fill="#263238"/>
<path d="M399.523 157.93C398.442 157.93 397.386 157.609 396.488 157.009C395.59 156.409 394.89 155.557 394.476 154.559C394.063 153.561 393.955 152.463 394.165 151.404C394.376 150.345 394.896 149.372 395.66 148.609C396.424 147.845 397.397 147.325 398.457 147.114C399.517 146.904 400.615 147.012 401.613 147.425C402.611 147.838 403.464 148.538 404.064 149.436C404.665 150.334 404.985 151.39 404.985 152.469C404.981 153.916 404.404 155.303 403.381 156.326C402.357 157.349 400.97 157.926 399.523 157.93ZM399.523 147.367C398.513 147.367 397.526 147.666 396.687 148.227C395.847 148.787 395.193 149.584 394.806 150.517C394.42 151.449 394.319 152.475 394.516 153.465C394.713 154.455 395.199 155.364 395.913 156.078C396.627 156.791 397.536 157.277 398.527 157.474C399.517 157.671 400.543 157.57 401.476 157.184C402.409 156.798 403.206 156.144 403.767 155.304C404.328 154.465 404.627 153.479 404.627 152.469C404.624 151.117 404.085 149.822 403.128 148.865C402.172 147.909 400.875 147.37 399.523 147.367Z" fill="#263238"/>
<path d="M456.629 121.209C457.49 121.209 458.188 120.512 458.188 119.651C458.188 118.791 457.49 118.093 456.629 118.093C455.768 118.093 455.07 118.791 455.07 119.651C455.07 120.512 455.768 121.209 456.629 121.209Z" fill="#263238"/>
<path d="M525.156 201.797C526.016 201.797 526.714 201.099 526.714 200.239C526.714 199.378 526.016 198.681 525.156 198.681C524.295 198.681 523.597 199.378 523.597 200.239C523.597 201.099 524.295 201.797 525.156 201.797Z" fill="#263238"/>
<path d="M600.054 154.027C600.915 154.027 601.612 153.33 601.612 152.469C601.612 151.609 600.915 150.911 600.054 150.911C599.193 150.911 598.495 151.609 598.495 152.469C598.495 153.33 599.193 154.027 600.054 154.027Z" fill="#263238"/>
<path d="M269.085 154.027C269.085 154.336 268.993 154.638 268.821 154.894C268.649 155.151 268.405 155.351 268.119 155.468C267.833 155.586 267.519 155.616 267.217 155.554C266.914 155.493 266.636 155.343 266.419 155.124C266.201 154.905 266.054 154.626 265.996 154.323C265.937 154.019 265.97 153.706 266.09 153.421C266.21 153.137 266.412 152.894 266.67 152.725C266.929 152.556 267.231 152.467 267.54 152.469C267.744 152.469 267.946 152.51 268.135 152.588C268.323 152.667 268.494 152.782 268.637 152.927C268.781 153.071 268.894 153.243 268.971 153.432C269.048 153.621 269.086 153.823 269.085 154.027Z" fill="#263238"/>
<path d="M614.767 227.568C614.374 227.747 613.961 227.882 613.538 227.968C612.334 228.291 611.153 228.697 610.006 229.183C605.659 231.21 601.79 234.133 598.652 237.759C594.362 242.362 590.144 248.765 584.81 255.969C581.974 259.857 578.828 263.509 575.402 266.89C573.494 268.72 571.453 270.406 569.296 271.935C566.978 273.511 564.512 274.857 561.932 275.952C556.344 278.206 550.333 279.215 544.315 278.91C541.123 278.842 537.946 278.445 534.835 277.724C531.531 277.022 528.407 275.65 525.655 273.693C522.849 271.642 520.429 269.111 518.505 266.218C516.532 263.359 514.759 260.329 513.043 257.256C509.611 251.066 506.065 244.834 502.018 238.574C497.972 232.313 494.368 225.567 490.264 218.992C486.267 212.216 481.429 205.973 475.865 200.41C472.985 197.66 469.731 195.331 466.199 193.492C462.628 191.67 458.748 190.531 454.759 190.133C446.488 189.336 438.173 191.113 430.951 195.221C423.796 199.536 417.621 205.295 412.82 212.131C408.044 218.781 403.712 225.738 399.85 232.957C396.057 239.998 391.865 246.817 387.296 253.382C382.917 259.721 377.816 265.53 372.096 270.692C370.69 271.94 369.22 273.113 367.692 274.208C366.19 275.308 364.629 276.325 363.016 277.252C359.845 279.093 356.439 280.497 352.892 281.426C351.156 281.888 349.387 282.218 347.601 282.412C346.719 282.524 345.83 282.572 344.942 282.555C344.055 282.555 343.168 282.555 342.296 282.555C338.85 282.364 335.443 281.729 332.158 280.668C326.044 278.511 320.267 275.498 314.999 271.721C309.909 268.219 305.261 264.574 300.7 261.315C296.479 258.105 291.931 255.35 287.13 253.096C282.853 251.121 278.294 249.824 273.617 249.251C269.557 248.768 265.441 249.034 261.477 250.037C260.583 250.26 259.704 250.542 258.846 250.881C258.001 251.138 257.179 251.463 256.387 251.853C254.9 252.536 253.466 253.329 252.097 254.225C249.8 255.753 247.642 257.48 245.648 259.385L243.403 261.844C242.755 262.502 242.153 263.204 241.601 263.945L239.328 266.932C239.08 267.288 238.797 267.619 238.484 267.919C238.656 267.521 238.877 267.146 239.142 266.804L241.244 263.673C241.771 262.907 242.349 262.176 242.974 261.487L245.176 258.928C247.148 256.916 249.307 255.097 251.625 253.496C252.988 252.549 254.422 251.708 255.915 250.981C256.717 250.561 257.554 250.212 258.417 249.937C259.296 249.566 260.199 249.255 261.12 249.008C265.206 247.9 269.464 247.561 273.674 248.008C278.496 248.531 283.206 249.81 287.63 251.795C292.549 254.043 297.218 256.803 301.558 260.029C306.162 263.287 310.838 266.875 315.857 270.291C321.003 273.921 326.635 276.808 332.587 278.867C335.722 279.856 338.97 280.437 342.253 280.597C343.083 280.597 343.912 280.597 344.756 280.597C345.593 280.609 346.429 280.556 347.258 280.44C348.948 280.249 350.621 279.929 352.263 279.482C359.124 277.541 365.432 274.016 370.68 269.191C376.256 264.115 381.227 258.412 385.494 252.196C390 245.69 394.139 238.938 397.891 231.97C401.781 224.661 406.152 217.618 410.975 210.887C415.963 203.804 422.372 197.836 429.793 193.363C433.617 191.214 437.743 189.652 442.033 188.732C446.262 187.844 450.6 187.598 454.902 188.003C459.178 188.429 463.335 189.656 467.157 191.619C470.881 193.545 474.305 196.001 477.323 198.909C483.004 204.611 487.947 211.003 492.037 217.934C496.156 224.58 499.816 231.284 503.72 237.559C507.623 243.834 511.341 250.209 514.716 256.369C518.09 262.53 521.479 268.562 526.713 272.264C529.279 274.11 532.2 275.405 535.292 276.066C538.281 276.768 541.332 277.17 544.401 277.267C550.183 277.6 555.968 276.678 561.36 274.565C563.861 273.533 566.256 272.26 568.509 270.763C570.619 269.304 572.617 267.689 574.486 265.932C577.903 262.644 581.045 259.083 583.881 255.283C589.286 248.136 593.676 241.819 598.094 237.245C601.354 233.589 605.389 230.708 609.906 228.811C611.084 228.353 612.306 228.013 613.552 227.797C613.949 227.682 614.356 227.606 614.767 227.568Z" fill="#5367FC"/>
<path d="M342.614 89.8922H265.985V94.1517H342.614V89.8922Z" fill="#263238"/>
<path d="M303.849 99.8691H265.985V104.129H303.849V99.8691Z" fill="#263238"/>
<path d="M219.479 23.6414H646.624C648.335 23.6414 649.975 24.3205 651.184 25.5295C652.394 26.7384 653.073 28.3781 653.073 30.0878V51.5281H213.03V30.0878C213.03 28.3781 213.709 26.7384 214.919 25.5295C216.128 24.3205 217.769 23.6414 219.479 23.6414Z" fill="#263238"/>
<path d="M235.837 38.1207C235.837 38.7144 235.661 39.2947 235.331 39.7884C235.001 40.282 234.532 40.6667 233.983 40.8939C233.435 41.1211 232.831 41.1805 232.249 41.0647C231.666 40.9489 231.131 40.663 230.711 40.2432C230.291 39.8234 230.005 39.2886 229.889 38.7063C229.773 38.1241 229.833 37.5205 230.06 36.972C230.287 36.4236 230.672 35.9548 231.166 35.6249C231.66 35.2951 232.24 35.1191 232.834 35.1191C233.631 35.1191 234.395 35.4353 234.958 35.9982C235.521 36.5612 235.837 37.3246 235.837 38.1207Z" fill="white"/>
<path d="M248.952 38.1207C248.952 38.7144 248.776 39.2947 248.446 39.7884C248.116 40.282 247.647 40.6667 247.098 40.8939C246.55 41.1211 245.946 41.1805 245.364 41.0647C244.781 40.9489 244.246 40.663 243.826 40.2432C243.406 39.8234 243.12 39.2886 243.004 38.7063C242.888 38.1241 242.948 37.5205 243.175 36.972C243.402 36.4236 243.787 35.9548 244.281 35.6249C244.775 35.2951 245.355 35.1191 245.949 35.1191C246.746 35.1191 247.51 35.4353 248.073 35.9982C248.636 36.5612 248.952 37.3246 248.952 38.1207Z" fill="white"/>
<path d="M262.05 38.1207C262.05 38.7144 261.874 39.2947 261.544 39.7884C261.214 40.282 260.745 40.6667 260.196 40.8939C259.647 41.1211 259.043 41.1805 258.461 41.0647C257.878 40.9489 257.343 40.663 256.923 40.2432C256.503 39.8234 256.218 39.2886 256.102 38.7063C255.986 38.1241 256.045 37.5205 256.273 36.972C256.5 36.4236 256.885 35.9548 257.378 35.6249C257.872 35.2951 258.453 35.1191 259.047 35.1191C259.843 35.1191 260.607 35.4353 261.17 35.9982C261.733 36.5612 262.05 37.3246 262.05 38.1207Z" fill="white"/>
<path d="M219.924 252.696H48.6909C46.1401 252.696 44.0723 254.763 44.0723 257.313V298.664C44.0723 301.214 46.1401 303.281 48.6909 303.281H219.924C222.475 303.281 224.542 301.214 224.542 298.664V257.313C224.542 254.763 222.475 252.696 219.924 252.696Z" fill="#E6E6E6"/>
<path d="M82.1067 286.414C80.7463 288.111 78.9134 289.366 76.8396 290.02C74.7658 290.675 72.5443 290.701 70.456 290.094C68.3678 289.486 66.5065 288.274 65.1076 286.609C63.7087 284.945 62.8351 282.903 62.5971 280.742C62.3591 278.581 62.7675 276.398 63.7707 274.469C64.7738 272.54 66.3266 270.952 68.2328 269.905C70.1389 268.859 72.3127 268.401 74.4794 268.589C76.646 268.777 78.7082 269.603 80.4051 270.963C81.5333 271.865 82.4725 272.98 83.1689 274.245C83.8652 275.511 84.305 276.901 84.4631 278.336C84.6212 279.771 84.4944 281.224 84.09 282.61C83.6857 283.996 83.0117 285.289 82.1067 286.414Z" fill="white"/>
<path d="M79.7169 275.809C77.9091 278.077 75.9145 280.191 73.7542 282.127C73.268 282.613 72.7818 283.084 72.3242 283.556L72.0669 283.813L71.8095 283.556C70.1709 282.05 68.6817 280.389 67.3624 278.596C69.1556 279.915 70.8173 281.404 72.3242 283.042H71.8238L73.2537 281.612C75.2397 279.498 77.4019 277.557 79.7169 275.809Z" fill="#263238"/>
<path d="M206.927 274.279C206.927 274.479 184.048 274.651 155.693 274.651C127.337 274.651 104.459 274.479 104.459 274.279C104.459 274.079 127.337 273.908 155.693 273.908C184.048 273.908 206.927 274.065 206.927 274.279Z" fill="#263238"/>
<path d="M164.899 284.285C164.899 284.485 151.63 284.656 135.271 284.656C118.913 284.656 105.601 284.485 105.601 284.285C105.601 284.085 118.856 283.913 135.214 283.913C151.572 283.913 164.899 284.07 164.899 284.285Z" fill="#263238"/>
<path d="M271.513 130.829H101.081C99.0119 130.829 97.3346 132.506 97.3346 134.574V200.939C97.3346 203.007 99.0119 204.684 101.081 204.684H271.513C273.582 204.684 275.259 203.007 275.259 200.939V134.574C275.259 132.506 273.582 130.829 271.513 130.829Z" fill="#E0E0E0"/>
<path d="M134.301 154.171C134.301 155.81 133.815 157.413 132.904 158.776C131.992 160.14 130.697 161.202 129.182 161.83C127.666 162.457 125.999 162.621 124.39 162.301C122.781 161.982 121.303 161.192 120.143 160.033C118.983 158.873 118.194 157.396 117.874 155.788C117.554 154.18 117.718 152.513 118.346 150.998C118.973 149.483 120.036 148.188 121.4 147.277C122.764 146.366 124.367 145.88 126.008 145.88C127.097 145.88 128.175 146.095 129.182 146.511C130.188 146.928 131.102 147.539 131.872 148.308C132.642 149.078 133.253 149.992 133.67 150.998C134.087 152.004 134.301 153.082 134.301 154.171Z" fill="#5367FC"/>
<path d="M200.392 148.439H142.594V151.64H200.392V148.439Z" fill="#5367FC"/>
<path d="M255.015 155.728H142.594V158.93H255.015V155.728Z" fill="white"/>
<path d="M134.301 179.656C134.301 181.295 133.815 182.898 132.904 184.262C131.992 185.625 130.697 186.687 129.182 187.315C127.666 187.942 125.999 188.107 124.39 187.787C122.781 187.467 121.303 186.677 120.143 185.518C118.983 184.358 118.194 182.881 117.874 181.273C117.554 179.665 117.718 177.998 118.346 176.483C118.973 174.968 120.036 173.674 121.4 172.763C122.764 171.852 124.367 171.365 126.008 171.365C127.097 171.364 128.177 171.577 129.184 171.993C130.191 172.409 131.106 173.019 131.876 173.789C132.647 174.56 133.258 175.474 133.674 176.481C134.09 177.488 134.303 178.567 134.301 179.656Z" fill="#5367FC"/>
<path d="M172.108 173.938H142.594V177.14H172.108V173.938Z" fill="#5367FC"/>
<path d="M255.015 181.214H142.594V184.416H255.015V181.214Z" fill="white"/>
<path d="M352.591 325.065H134.357C131.23 325.065 128.695 327.599 128.695 330.725V416.944C128.695 420.07 131.23 422.604 134.357 422.604H352.591C355.719 422.604 358.254 420.07 358.254 416.944V330.725C358.254 327.599 355.719 325.065 352.591 325.065Z" fill="#E0E0E0"/>
<path d="M170.69 372.19L170.561 352.408C164.527 352.516 158.73 354.777 154.217 358.783C151.329 361.293 149.102 364.473 147.731 368.045C146.36 371.616 145.886 375.469 146.353 379.266C146.453 380.209 146.61 381.167 146.81 382.124C146.817 382.148 146.817 382.173 146.81 382.196L170.661 376.836L170.69 372.19Z" fill="#5367FC"/>
<path d="M195.272 366.101C193.528 362.366 190.831 359.155 187.453 356.792C184.074 354.428 180.133 352.995 176.025 352.637L175.267 352.565H174.781C174.309 352.565 173.837 352.565 173.351 352.565H173.222L173.351 372.348V376.993L197.231 382.11C197.6 380.425 197.778 378.704 197.76 376.979C197.741 373.214 196.892 369.5 195.272 366.101Z" fill="#5367FC"/>
<g opacity="0.2">
<path opacity="0.2" d="M195.272 366.101C193.528 362.366 190.831 359.155 187.453 356.792C184.074 354.428 180.133 352.995 176.025 352.637L175.267 352.565H174.781C174.309 352.565 173.837 352.565 173.351 352.565H173.222L173.351 372.348V376.993L197.231 382.11C197.6 380.425 197.778 378.704 197.76 376.979C197.741 373.214 196.892 369.5 195.272 366.101Z" fill="black"/>
</g>
<path d="M171.965 379.251L148.128 384.626C149.357 390.046 152.396 394.887 156.746 398.349C161.096 401.811 166.497 403.688 172.057 403.669C177.617 403.651 183.005 401.739 187.332 398.248C191.659 394.758 194.667 389.897 195.859 384.468L172.008 379.266" fill="#5367FC"/>
<g opacity="0.1">
<path opacity="0.1" d="M171.965 379.251L148.128 384.626C149.357 390.046 152.396 394.887 156.746 398.349C161.096 401.811 166.497 403.688 172.057 403.669C177.617 403.651 183.005 401.739 187.332 398.248C191.659 394.758 194.667 389.897 195.859 384.468L172.008 379.266" fill="black"/>
</g>
<path d="M334.934 358.326H213.777V363.814H334.934V358.326Z" fill="white"/>
<path d="M334.934 372.791H213.777V378.28H334.934V372.791Z" fill="white"/>
<path d="M279.267 388.785H213.777V394.274H279.267V388.785Z" fill="white"/>
<path d="M623.605 255.898H408.303C401.661 255.898 396.277 261.28 396.277 267.919V474.247C396.277 480.885 401.661 486.267 408.303 486.267H623.605C630.247 486.267 635.631 480.885 635.631 474.247V267.919C635.631 261.28 630.247 255.898 623.605 255.898Z" fill="#E6E6E6"/>
<path d="M420.855 413.713H413.005V415.972H420.855V413.713Z" fill="#263238"/>
<path d="M440.831 425.82H430.779V428.079H440.831V425.82Z" fill="#263238"/>
<path d="M475.81 425.82H465.758V428.079H475.81V425.82Z" fill="#263238"/>
<path d="M510.769 425.82H500.717V428.079H510.769V425.82Z" fill="#263238"/>
<path d="M545.745 425.82H535.693V428.079H545.745V425.82Z" fill="#263238"/>
<path d="M580.722 425.82H570.669V428.079H580.722V425.82Z" fill="#263238"/>
<path d="M615.698 425.82H605.646V428.079H615.698V425.82Z" fill="#263238"/>
<path d="M420.855 383.497H413.005V385.755H420.855V383.497Z" fill="#263238"/>
<path d="M420.855 326.608H413.005V328.867H420.855V326.608Z" fill="#263238"/>
<path d="M420.855 298.035H413.005V300.294H420.855V298.035Z" fill="#263238"/>
<path d="M421.257 355.052H413.406V357.311H421.257V355.052Z" fill="#263238"/>
<path d="M615.412 415.986H614.568H612.094L602.585 416.057L567.624 416.172L452.286 416.286H424.589V415.929C424.589 377.336 424.689 343.446 424.718 319.133C424.718 306.997 424.803 297.278 424.832 290.545C424.832 287.215 424.832 284.628 424.832 282.855C424.832 281.998 424.832 281.34 424.832 280.854C424.82 280.631 424.82 280.406 424.832 280.183C424.844 280.406 424.844 280.631 424.832 280.854C424.832 281.34 424.832 281.998 424.832 282.855C424.832 284.628 424.832 287.144 424.832 290.545C424.832 297.278 424.903 306.997 424.946 319.133C424.946 343.432 425.018 377.379 425.075 415.929L424.703 415.557H452.029L567.366 415.657L602.328 415.771L611.837 415.843H614.311L615.412 415.986Z" fill="#263238"/>
<path d="M617.613 356.182C617.613 356.396 576.146 356.553 525.098 356.553C474.05 356.553 432.553 356.396 432.553 356.182C432.553 355.967 474.021 355.81 525.098 355.81C576.174 355.81 617.613 355.982 617.613 356.182Z" fill="#263238"/>
<path d="M617.613 327.794C617.613 327.995 576.146 328.166 525.098 328.166C474.05 328.166 432.553 327.995 432.553 327.794C432.553 327.594 474.021 327.423 525.098 327.423C576.174 327.423 617.613 327.537 617.613 327.794Z" fill="#263238"/>
<path d="M617.613 299.207C617.613 299.407 576.146 299.579 525.098 299.579C474.05 299.579 432.553 299.407 432.553 299.207C432.553 299.007 474.021 298.836 525.098 298.836C576.174 298.836 617.613 298.95 617.613 299.207Z" fill="#263238"/>
<path d="M617.613 384.626C617.613 384.826 576.146 384.998 525.098 384.998C474.05 384.998 432.553 384.826 432.553 384.626C432.553 384.426 474.021 384.254 525.098 384.254C576.174 384.254 617.613 384.426 617.613 384.626Z" fill="#263238"/>
<path d="M434.483 409.854V384.626L450.212 360.212L460.893 368.403L482.8 334.37L495.669 343.475L513.657 312.029L528.271 323.921L550.178 282.284L573.786 328.824L592.889 305.539L615.368 299.107V409.797L434.483 409.854Z" fill="#5367FC"/>
<path d="M617.612 290.202H617.226H616.054H611.492L594.247 290.288H594.405L575.93 314.43L575.83 314.544H575.687L529.415 314.616L529.729 314.444L510.268 346.862L491.165 378.594L490.893 379.051L490.564 378.622L465.512 344.161H466.012L443.134 379.78C440.402 384.068 438.243 387.327 436.756 389.614C436.041 390.729 435.469 391.572 435.069 392.187C434.668 392.802 434.468 393.045 434.468 393.045C434.468 393.045 434.64 392.73 434.997 392.144C435.355 391.558 435.912 390.643 436.613 389.514L442.848 379.58L465.497 343.846L465.726 343.475L465.998 343.832C473.491 354.08 481.97 365.687 491.15 378.222H490.55L509.625 346.476L529.115 314.116L529.215 313.944H529.415H575.687L575.458 314.058L594.047 290.017V289.931H594.162L611.406 290.031H615.968H617.14L617.612 290.202Z" fill="#263238"/>
<path d="M473.335 352.094C473.347 352.446 473.252 352.795 473.065 353.093C472.877 353.392 472.604 353.628 472.281 353.771C471.958 353.914 471.6 353.958 471.253 353.896C470.905 353.834 470.584 353.67 470.33 353.424C470.076 353.179 469.902 352.863 469.829 352.518C469.755 352.173 469.787 351.814 469.919 351.486C470.052 351.159 470.279 350.879 470.571 350.682C470.864 350.484 471.209 350.379 471.562 350.378C471.792 350.373 472.02 350.413 472.234 350.496C472.448 350.58 472.643 350.705 472.808 350.865C472.973 351.024 473.105 351.215 473.195 351.426C473.286 351.637 473.333 351.864 473.335 352.094Z" fill="#263238"/>
<path d="M526.715 321.748C526.726 322.101 526.632 322.449 526.444 322.748C526.256 323.047 525.984 323.283 525.661 323.426C525.338 323.569 524.98 323.612 524.632 323.551C524.284 323.489 523.963 323.325 523.709 323.079C523.456 322.834 523.281 322.518 523.208 322.173C523.135 321.828 523.166 321.468 523.299 321.141C523.431 320.814 523.658 320.534 523.951 320.336C524.244 320.139 524.589 320.033 524.942 320.033C525.171 320.029 525.398 320.071 525.611 320.155C525.825 320.239 526.019 320.364 526.184 320.524C526.348 320.683 526.48 320.873 526.571 321.083C526.662 321.293 526.711 321.519 526.715 321.748Z" fill="#263238"/>
<path d="M568.208 314.301C568.222 314.658 568.129 315.011 567.941 315.314C567.753 315.618 567.478 315.858 567.152 316.004C566.826 316.149 566.464 316.194 566.112 316.132C565.761 316.071 565.435 315.905 565.179 315.657C564.922 315.408 564.746 315.089 564.673 314.74C564.599 314.39 564.632 314.027 564.767 313.697C564.902 313.366 565.134 313.084 565.431 312.886C565.728 312.688 566.078 312.583 566.435 312.586C566.664 312.582 566.891 312.624 567.104 312.708C567.318 312.792 567.512 312.917 567.677 313.077C567.841 313.236 567.973 313.426 568.064 313.636C568.155 313.846 568.204 314.072 568.208 314.301Z" fill="#263238"/>
<path d="M442.261 467.1C448.603 467.1 453.743 462.153 453.743 456.051C453.743 449.949 448.603 445.002 442.261 445.002C435.92 445.002 430.779 449.949 430.779 456.051C430.779 462.153 435.92 467.1 442.261 467.1Z" fill="white"/>
<path d="M605.644 448.647H470.774V452.778H605.644V448.647Z" fill="white"/>
<path d="M526.77 458.981H470.774V463.112H526.77V458.981Z" fill="white"/>
<path d="M710.445 76.9706H565.652C561.751 76.9706 558.588 80.1319 558.588 84.0316V201.668C558.588 205.568 561.751 208.729 565.652 208.729H710.445C714.347 208.729 717.509 205.568 717.509 201.668V84.0316C717.509 80.1319 714.347 76.9706 710.445 76.9706Z" fill="#E6E6E6"/>
<path d="M594.891 129.728H586.326V194.378H594.891V129.728Z" fill="#5367FC"/>
<path d="M633.826 124.483H625.261V194.378H633.826V124.483Z" fill="#5367FC"/>
<path d="M674.152 115.606H665.587V194.378H674.152V115.606Z" fill="#5367FC"/>
<path d="M655.216 162.889H646.651V194.364H655.216V162.889Z" fill="#5367FC"/>
<g opacity="0.2">
<path opacity="0.2" d="M655.222 162.889H646.657V194.364H655.222V162.889Z" fill="black"/>
</g>
<path d="M604.87 122.796H596.305V194.378H604.87V122.796Z" fill="#5367FC"/>
<g opacity="0.1">
<path opacity="0.1" d="M604.876 122.796H596.311V194.378H604.876V122.796Z" fill="black"/>
</g>
<path d="M644.508 107.802H635.943V194.378H644.508V107.802Z" fill="#5367FC"/>
<g opacity="0.1">
<path opacity="0.1" d="M644.511 107.802H635.946V194.379H644.511V107.802Z" fill="black"/>
</g>
<path d="M696.259 107.802H687.694V194.378H696.259V107.802Z" fill="#5367FC"/>
<g opacity="0.2">
<path opacity="0.2" d="M696.256 107.802H687.691V194.378H696.256V107.802Z" fill="black"/>
</g>
<path d="M685.077 90.7068H676.512V194.378H685.077V90.7068Z" fill="#5367FC"/>
<g opacity="0.1">
<path opacity="0.1" d="M685.077 90.7068H676.512V194.378H685.077V90.7068Z" fill="black"/>
</g>
<path d="M615.353 148.953H606.787V194.378H615.353V148.953Z" fill="#5367FC"/>
<g opacity="0.2">
<path opacity="0.2" d="M615.356 148.953H606.79V194.378H615.356V148.953Z" fill="black"/>
</g>
<path d="M708.512 198.295C708.512 198.509 677.941 198.666 640.248 198.666C602.555 198.666 571.969 198.509 571.969 198.295C571.969 198.08 602.527 197.923 640.248 197.923C677.969 197.923 708.512 198.095 708.512 198.295Z" fill="#263238"/>
<path d="M573.227 182.872H567.993V184.601H573.227V182.872Z" fill="#263238"/>
<path d="M573.227 159.874H567.993V161.603H573.227V159.874Z" fill="#263238"/>
<path d="M573.227 116.564H567.993V118.293H573.227V116.564Z" fill="#263238"/>
<path d="M573.227 94.8091H567.993V96.5387H573.227V94.8091Z" fill="#263238"/>
<path d="M573.499 138.219H568.265V139.948H573.499V138.219Z" fill="#263238"/>
<path d="M533.979 66.2649H380.206C377.655 66.2649 375.587 68.3319 375.587 70.8817V107.33C375.587 109.88 377.655 111.947 380.206 111.947H533.979C536.53 111.947 538.598 109.88 538.598 107.33V70.8817C538.598 68.3319 536.53 66.2649 533.979 66.2649Z" fill="#5367FC"/>
<path d="M409.945 96.7245C408.715 98.2568 407.058 99.3901 405.183 99.981C403.309 100.572 401.301 100.594 399.414 100.044C397.527 99.4943 395.845 98.3975 394.582 96.8924C393.318 95.3873 392.53 93.5414 392.316 91.5883C392.102 89.6352 392.472 87.6625 393.38 85.9197C394.287 84.1769 395.691 82.7423 397.415 81.7973C399.138 80.8523 401.103 80.4393 403.061 80.6106C405.019 80.7819 406.882 81.5298 408.415 82.7596C410.454 84.4197 411.758 86.8153 412.044 89.4285C412.331 92.0417 411.577 94.6625 409.945 96.7245Z" fill="white"/>
<path d="M402.178 100.527C399.711 100.396 397.38 99.3586 395.633 97.6137C393.886 95.8688 392.845 93.5397 392.712 91.0743C392.579 88.6089 393.363 86.1814 394.912 84.2587C396.462 82.3359 398.667 81.0537 401.105 80.6586C401.472 80.6377 401.84 80.6377 402.207 80.6586C404.077 80.6773 405.904 81.2194 407.482 82.2234C409.06 83.2275 410.325 84.6534 411.133 86.3394C411.941 88.0254 412.261 89.9041 412.056 91.7624C411.85 93.6207 411.128 95.3843 409.971 96.8533C409.155 97.8786 408.143 98.7315 406.994 99.3622C405.845 99.9928 404.582 100.389 403.279 100.527C402.912 100.548 402.545 100.548 402.178 100.527ZM402.178 80.6729C401.811 80.652 401.444 80.652 401.077 80.6729C399.46 80.8524 397.913 81.4275 396.572 82.3473C395.23 83.267 394.137 84.5031 393.387 85.9462C392.638 87.3892 392.256 88.9946 392.275 90.6204C392.294 92.2462 392.714 93.8422 393.497 95.2671C394.281 96.692 395.403 97.902 396.766 98.7898C398.128 99.6777 399.689 100.216 401.309 100.357C402.93 100.499 404.56 100.238 406.056 99.5999C407.552 98.9612 408.867 97.9639 409.885 96.696C411.052 95.2426 411.784 93.4893 411.997 91.6383C412.21 89.7872 411.896 87.9135 411.09 86.2331C410.285 84.5527 409.021 83.1339 407.444 82.1401C405.867 81.1463 404.042 80.6179 402.178 80.6158V80.6729Z" fill="#263238"/>
<path d="M407.773 87.1335C406.178 89.2062 404.387 91.1208 402.425 92.851L401.124 94.1088L400.852 94.3661L400.609 94.1088C399.126 92.7507 397.789 91.2417 396.62 89.6063C398.256 90.7755 399.765 92.112 401.124 93.5942H400.609L401.91 92.3078C403.702 90.4079 405.665 88.6759 407.773 87.1335Z" fill="#5367FC"/>
<path d="M522.679 85.7612C522.679 85.9614 501.959 86.1329 476.406 86.1329C450.854 86.1329 430.12 85.9614 430.12 85.7612C430.12 85.5611 450.84 85.3896 476.406 85.3896C501.973 85.3896 522.679 85.5468 522.679 85.7612Z" fill="white"/>
<path d="M484.717 94.8092C484.717 95.0093 472.748 95.1808 457.963 95.1808C443.178 95.1808 431.209 95.0093 431.209 94.8092C431.209 94.6091 443.192 94.4376 457.963 94.4376C472.734 94.4376 484.717 94.5805 484.717 94.8092Z" fill="white"/>
<path d="M788.599 153.184C788.599 153.184 788.413 153.427 787.999 153.87C787.584 154.314 787.012 154.985 786.183 155.8C783.709 158.097 780.916 160.023 777.889 161.518C776.858 162.061 775.793 162.539 774.7 162.947L772.942 163.576L771.054 164.076C769.711 164.408 768.351 164.666 766.979 164.848C766.264 164.934 765.549 164.962 764.791 165.034C764.034 165.084 763.275 165.084 762.518 165.034C755.514 164.985 748.693 162.795 742.971 158.759H743.214L726.183 162.132L725.225 162.318L725.869 161.589L735.22 150.812V151.255C733.55 148.937 732.144 146.439 731.031 143.808C729.939 141.049 729.181 138.17 728.772 135.232C727.971 129.069 728.861 122.804 731.345 117.107C734.447 109.997 739.869 104.147 746.725 100.513C753.581 96.8782 761.466 95.674 769.095 97.0964C775.743 98.3157 781.879 101.48 786.726 106.187C791.924 111.167 795.403 117.67 796.663 124.755C797.922 131.841 796.896 139.144 793.733 145.609C793.404 146.266 793.075 146.895 792.775 147.481C792.474 148.067 792.088 148.553 791.788 149.039C791.294 149.873 790.735 150.667 790.115 151.412L788.985 152.841C788.864 153.004 788.73 153.157 788.585 153.299C788.676 153.117 788.791 152.949 788.928 152.798L790.001 151.369C790.594 150.61 791.129 149.807 791.602 148.968C791.888 148.482 792.246 147.982 792.56 147.395C792.875 146.809 793.146 146.181 793.475 145.523C797.067 137.924 797.69 129.258 795.22 121.224C793.548 115.703 790.474 110.71 786.297 106.73C784 104.5 781.389 102.617 778.547 101.141C775.55 99.556 772.321 98.4515 768.981 97.8682C763.764 96.9134 758.396 97.203 753.313 98.7134C748.23 100.224 743.575 102.913 739.728 106.561C735.88 110.209 732.949 114.713 731.172 119.708C729.395 124.702 728.822 130.046 729.501 135.303C729.9 138.177 730.639 140.994 731.703 143.693C732.789 146.273 734.161 148.723 735.792 150.997L735.95 151.226L735.778 151.441L726.398 161.989L726.083 161.432L743.099 158.216H743.214H743.328C748.944 162.208 755.641 164.401 762.532 164.505C763.275 164.555 764.02 164.555 764.763 164.505C765.506 164.505 766.192 164.505 766.936 164.348C768.288 164.178 769.629 163.935 770.954 163.619L772.827 163.147L774.572 162.532C775.654 162.168 776.71 161.728 777.732 161.217C780.757 159.752 783.558 157.865 786.054 155.614C786.912 154.828 787.484 154.185 787.942 153.756C788.399 153.327 788.599 153.184 788.599 153.184Z" fill="#263238"/>
<path d="M763.337 123.711L757.603 121.81L751.854 119.909L753.084 125.827L754.299 131.744L757.431 128.971L770.872 144.065L773.661 141.592L760.219 126.484L763.337 123.711Z" fill="#263238"/>
</svg>
