<svg width="214" height="21" viewBox="0 0 214 21" fill="none" xmlns="http://www.w3.org/2000/svg">
<g id="Component 1">
<mask id="mask0" mask-type="alpha" maskUnits="userSpaceOnUse" x="0" y="0" width="214" height="21">
<path id="OMEN CLUSTER" d="M10.0523 0.871999C7.29225 0.871999 4.91625 1.808 2.97225 3.704C1.02825 5.576 0.04425 7.88 0.04425 10.592C0.04425 13.304 1.00425 15.608 2.92425 17.48C4.86825 19.352 7.22025 20.288 10.0043 20.288C12.7883 20.288 15.1403 19.352 17.0603 17.456C19.0043 15.56 19.9643 13.256 19.9643 10.52C19.9643 7.808 19.0043 5.504 17.0843 3.656C15.1883 1.808 12.8363 0.871999 10.0523 0.871999ZM10.0283 6.008C11.2043 6.008 12.1883 6.464 12.9803 7.376C13.7963 8.264 14.2043 9.344 14.2043 10.568C14.2043 11.792 13.7963 12.872 13.0043 13.784C12.2123 14.696 11.2043 15.152 10.0283 15.152C8.85225 15.152 7.84425 14.696 7.02825 13.784C6.23625 12.872 5.82825 11.792 5.82825 10.568C5.82825 9.344 6.23625 8.264 7.02825 7.376C7.84425 6.464 8.85225 6.008 10.0283 6.008ZM39.0994 10.16H39.1234V20H44.7154V1.208H37.4914L33.7474 12.728L29.7874 1.208H22.8034V20H28.2514V10.304H28.2994L31.6834 20H35.7874L39.0994 10.16ZM62.1921 1.208H48.6081V20H62.2641V15.248H54.1761V12.728H61.5681V8.288H54.1761V5.936H62.1921V1.208ZM71.0991 10.112H71.1231L77.6031 20H83.3151V1.208H77.6991V10.424H77.6751L71.6751 1.208H65.4831V20H71.0991V10.112ZM101.739 0.871999C98.8826 0.871999 96.5066 1.808 94.6106 3.704C92.7146 5.6 91.7786 7.88 91.7786 10.592C91.7786 13.4 92.7146 15.728 94.5866 17.552C96.4826 19.376 98.8106 20.288 101.619 20.288C103.851 20.288 105.723 19.76 107.211 18.728C108.723 17.672 109.755 16.376 110.355 14.84L105.363 12.464C104.643 14.216 103.419 15.104 101.667 15.104C100.491 15.104 99.5066 14.672 98.7386 13.784C97.9706 12.896 97.5866 11.84 97.5866 10.568C97.5866 9.296 97.9706 8.24 98.7386 7.352C99.5306 6.464 100.491 6.032 101.667 6.032C103.347 6.032 104.571 6.896 105.315 8.624L110.283 6.272C109.707 4.76 108.699 3.488 107.259 2.456C105.819 1.4 103.971 0.871999 101.739 0.871999ZM112.78 1.208V20H125.764V15.104H118.444V1.208H112.78ZM137.743 1.208V12.632C137.743 14.288 136.975 15.128 135.463 15.128C134.023 15.128 133.159 14.264 133.159 12.512V1.208H127.447V12.584C127.447 17.288 130.111 20.288 135.415 20.288C140.695 20.288 143.479 17.408 143.479 12.512V1.208H137.743ZM153.906 20.264C158.61 20.264 161.346 17.96 161.346 14.216C161.346 12.656 160.77 11.408 159.642 10.52C158.514 9.608 156.762 8.792 154.362 8.096C152.874 7.664 152.13 7.184 152.13 6.632C152.13 5.984 152.682 5.528 153.666 5.528C155.082 5.528 156.09 6.2 156.69 7.52L161.106 5.12C159.93 2.312 157.506 0.895998 153.882 0.895998C151.866 0.895998 150.162 1.448 148.77 2.576C147.402 3.704 146.706 5.168 146.706 6.968C146.706 10.232 149.034 11.936 153.354 13.088C155.034 13.544 155.874 14 155.874 14.504C155.874 15.152 155.202 15.608 153.93 15.608C152.25 15.608 151.05 14.84 150.354 13.28L145.914 15.728C147.21 18.752 149.874 20.264 153.906 20.264ZM167.238 20H172.902V6.104H177.918V1.208H162.198V6.104H167.238V20ZM193.887 1.208H180.303V20H193.959V15.248H185.871V12.728H193.263V8.288H185.871V5.936H193.887V1.208ZM213.138 20L209.01 12.776C211.338 11.792 212.49 9.992 212.49 7.376C212.49 5.336 211.794 3.8 210.378 2.768C208.962 1.736 207.114 1.208 204.81 1.208H197.178V20H202.866V13.736H203.466L206.97 20H213.138ZM202.866 5.816H204.666C206.154 5.816 206.898 6.392 206.898 7.568C206.898 8.6 206.154 9.296 204.642 9.296H202.866V5.816Z" fill="black"/>
</mask>
<g mask="url(#mask0)">
<path id="Rectangle 1" d="M-1 -1H214V25H-1V-1Z" fill="#5367FC"/>
</g>
</g>
</svg>
