<svg width="16" height="17" viewBox="0 0 16 17" fill="none" xmlns="http://www.w3.org/2000/svg">
<path d="M7.26024 0.993432V15.3576C7.26024 15.8788 6.78429 16.2697 6.28414 16.1557C2.67822 15.3414 0 12.076 0 8.17554C0 4.27505 2.67822 1.00972 6.28414 0.19542C6.78429 0.0814183 7.26024 0.472281 7.26024 0.993432V0.993432ZM8.89783 0.993432V6.5388C8.89783 6.98666 9.26084 7.3531 9.70452 7.3531H15.182C15.6983 7.3531 16.0855 6.87266 15.9725 6.35965C15.2868 3.29789 12.9071 0.887573 9.88199 0.19542C9.37378 0.0814183 8.89783 0.472281 8.89783 0.993432V0.993432ZM8.89783 9.81228V15.3576C8.89783 15.8788 9.37378 16.2697 9.88199 16.1557C12.9152 15.4635 15.2949 13.045 15.9806 9.98328C16.0935 9.47841 15.6983 8.98983 15.19 8.98983H9.71259C9.26084 8.99798 8.89783 9.36441 8.89783 9.81228Z" fill="black" fill-opacity="0.54"/>
</svg>
