<svg width="16" height="16" viewBox="0 0 16 16" fill="none" xmlns="http://www.w3.org/2000/svg">
<path d="M15.1579 12.6316V13.4737C15.1579 14.4 14.4 15.1579 13.4737 15.1579H1.68421C0.749474 15.1579 0 14.4 0 13.4737V1.68421C0 0.757895 0.749474 0 1.68421 0H13.4737C14.4 0 15.1579 0.757895 15.1579 1.68421V2.52632H7.57895C6.64421 2.52632 5.89474 3.28421 5.89474 4.21053V10.9474C5.89474 11.8737 6.64421 12.6316 7.57895 12.6316H15.1579ZM7.57895 10.9474H16V4.21053H7.57895V10.9474ZM10.9474 8.84211C10.2484 8.84211 9.68421 8.27789 9.68421 7.57895C9.68421 6.88 10.2484 6.31579 10.9474 6.31579C11.6463 6.31579 12.2105 6.88 12.2105 7.57895C12.2105 8.27789 11.6463 8.84211 10.9474 8.84211Z" fill="black" fill-opacity="0.54"/>
</svg>
